# xmcd
#
# Track frame offsets:
#	150
#	18875
#	40351
#	57925
#	73274
#	99131
#	118170
#	140910
#	155107
#	169921
#	189751
#	200403
#
# Disc length: 2928 seconds
#
# Revision: 1
# Processed by: cddbd v1.5.2PL0 Copyright (c) Steve Scherf et al.
# Submitted via: audiograbber 1.83.01
#
DISCID=ab0b6e0c
DTITLE=The Ditch Lilies - The Ditch Lilies
DYEAR=1900
DGENRE=
TTITLE0=West Teas Wind
TTITLE1=Chick Flick
TTITLE2=Granpa´s Story
TTITLE3=Evrything
TTITLE4=Butternut Scarecrow
TTITLE5=Cryin´ On My Pizza
TTITLE6=The Futuremyou Left Behind
TTITLE7=I´m Gonna Get My Head Frozen
TTITLE8=Don´t Take The Dog
TTITLE9=The Champagne Man
TTITLE10=Great Big Ball Of Light
TTITLE11=Long Odds
EXTD=
EXTT0=
EXTT1=
EXTT2=
EXTT3=
EXTT4=
EXTT5=
EXTT6=
EXTT7=
EXTT8=
EXTT9=
EXTT10=
EXTT11=
PLAYORDER=
